# xmcd
#
# Track frame offsets:
#	150
#	21070
#	37868
#	54713
#	73791
#	89558
#	105059
#	122754
#	138829
#	155960
#	171370
#	191285
#	207101
#	226289
#	244997
#
# Disc length: 3494 seconds
#
# Revision: 0
# Processed by: cddbd v1.5.2PL0 Copyright (c) Steve Scherf et al.
# Submitted via: audiograbber 1.83.01
#
DISCID=c80da40f
DTITLE=Sound Choice - Country Jesters - Vol. 1 SC8921
DYEAR=1900
DGENRE=Karaoke
TTITLE0=The Notorius Cherry Bombs - It's Hard To Kiss The Lips At Night
TTITLE1=Toby Keith - Stays In Mexico
TTITLE2=Terri Clark - Girls Lie Too
TTITLE3=Kenny Chesney - Big Star
TTITLE4=Blake Shelton - Some Beach
TTITLE5=Brad Paisley - I'm Gonna Miss Her
TTITLE6=Sara Evans - Suds In The Bucket
TTITLE7=Big and Rich - Save A Horse (Ride A Cowboy)
TTITLE8=Brad Paisley - Celebrity (Radio Version)
TTITLE9=Jo Dee Messina - My Give A Damn's Busted
TTITLE10=Toby Keith - Who's Your Daddy
TTITLE11=Gretchen Wilson - Homewrecker
TTITLE12=Trace Adkins - Honky Tonk Badonkadonk
TTITLE13=Tim McGraw - Do You Want Fries With That
TTITLE14=Kenny Chesney - No Shoes, No Shirt, No Problem
EXTD=
EXTT0=
EXTT1=
EXTT2=
EXTT3=
EXTT4=
EXTT5=
EXTT6=
EXTT7=
EXTT8=
EXTT9=
EXTT10=
EXTT11=
EXTT12=
EXTT13=
EXTT14=
PLAYORDER=
